<mxfile host="799cbd2f-92c3-4151-9961-8accc0294837" modified="2020-07-26T00:51:17.115Z" agent="5.0 (Macintosh; Intel Mac OS X 10_15_5) AppleWebKit/537.36 (KHTML, like Gecko) Code/1.47.2 Chrome/78.0.3904.130 Electron/7.3.2 Safari/537.36" etag="tbrpsCm0mvIDDXju12tl" version="13.1.3">
    <diagram id="6hGFLwfOUW9BJ-s0fimq" name="Page-1">
        <mxGraphModel dx="907" dy="629" grid="1" gridSize="10" guides="1" tooltips="1" connect="1" arrows="1" fold="1" page="1" pageScale="1" pageWidth="827" pageHeight="1169" math="0" shadow="0">
            <root>
                <mxCell id="0"/>
                <mxCell id="1" parent="0"/>
                <mxCell id="2" value="作为服务端建立连接" style="swimlane;html=1;childLayout=stackLayout;resizeParent=1;resizeParentMax=0;startSize=20;" parent="1" vertex="1">
                    <mxGeometry x="10" y="20" width="470" height="300" as="geometry"/>
                </mxCell>
                <mxCell id="3" value="Reactor" style="swimlane;html=1;startSize=20;" parent="2" vertex="1">
                    <mxGeometry y="20" width="120" height="280" as="geometry"/>
                </mxCell>
                <mxCell id="9" value="&lt;div style=&quot;color: rgb(171, 178, 191); background-color: rgb(40, 44, 52); font-family: consolas, &amp;quot;courier new&amp;quot;, monospace; font-size: 11px; line-height: 19px;&quot;&gt;&lt;span style=&quot;color: rgb(97, 175, 239); font-size: 11px;&quot;&gt;HandleEvent&lt;/span&gt;&lt;/div&gt;" style="shape=ext;rounded=1;html=1;whiteSpace=wrap;fontSize=11;" parent="3" vertex="1">
                    <mxGeometry x="10" y="40" width="100" height="30" as="geometry"/>
                </mxCell>
                <mxCell id="4" value="ServerTcpSocket" style="swimlane;html=1;startSize=20;" parent="2" vertex="1">
                    <mxGeometry x="120" y="20" width="110" height="280" as="geometry"/>
                </mxCell>
                <mxCell id="12" value="&lt;div style=&quot;background-color: rgb(40 , 44 , 52) ; font-family: &amp;#34;consolas&amp;#34; , &amp;#34;courier new&amp;#34; , monospace ; font-size: 11px ; line-height: 19px&quot;&gt;&lt;div style=&quot;font-family: &amp;#34;consolas&amp;#34; , &amp;#34;courier new&amp;#34; , monospace ; font-size: 11px ; line-height: 19px&quot;&gt;&lt;font color=&quot;#61afef&quot;&gt;Open&lt;/font&gt;&lt;/div&gt;&lt;/div&gt;" style="shape=ext;rounded=1;html=1;whiteSpace=wrap;fontSize=11;" parent="4" vertex="1">
                    <mxGeometry x="10" y="160" width="90" height="30" as="geometry"/>
                </mxCell>
                <mxCell id="10" value="&lt;div style=&quot;color: rgb(171, 178, 191); background-color: rgb(40, 44, 52); font-family: consolas, &amp;quot;courier new&amp;quot;, monospace; font-size: 11px; line-height: 19px;&quot;&gt;&lt;span style=&quot;color: rgb(97, 175, 239); font-size: 11px;&quot;&gt;HandleInput&lt;/span&gt;&lt;/div&gt;" style="shape=ext;rounded=1;html=1;whiteSpace=wrap;fontSize=11;" parent="4" vertex="1">
                    <mxGeometry x="10" y="60" width="90" height="30" as="geometry"/>
                </mxCell>
                <mxCell id="11" value="&lt;div style=&quot;color: rgb(171, 178, 191); background-color: rgb(40, 44, 52); font-family: consolas, &amp;quot;courier new&amp;quot;, monospace; font-size: 11px; line-height: 19px;&quot;&gt;&lt;div style=&quot;font-family: consolas, &amp;quot;courier new&amp;quot;, monospace; font-size: 11px; line-height: 19px;&quot;&gt;&lt;span style=&quot;color: rgb(97, 175, 239); font-size: 11px;&quot;&gt;MakeNewClient&lt;/span&gt;&lt;/div&gt;&lt;/div&gt;" style="shape=ext;rounded=1;html=1;whiteSpace=wrap;fontSize=11;" parent="4" vertex="1">
                    <mxGeometry x="10" y="110" width="90" height="30" as="geometry"/>
                </mxCell>
                <mxCell id="5" value="DppCommand" style="swimlane;html=1;startSize=20;" parent="2" vertex="1">
                    <mxGeometry x="230" y="20" width="120" height="280" as="geometry"/>
                </mxCell>
                <mxCell id="13" value="&lt;div style=&quot;background-color: rgb(40 , 44 , 52) ; font-family: &amp;#34;consolas&amp;#34; , &amp;#34;courier new&amp;#34; , monospace ; font-size: 11px ; line-height: 19px&quot;&gt;&lt;div style=&quot;font-family: &amp;#34;consolas&amp;#34; , &amp;#34;courier new&amp;#34; , monospace ; font-size: 11px ; line-height: 19px&quot;&gt;&lt;font color=&quot;#61afef&quot;&gt;OnOpen&lt;/font&gt;&lt;/div&gt;&lt;/div&gt;" style="shape=ext;rounded=1;html=1;whiteSpace=wrap;fontSize=11;" parent="5" vertex="1">
                    <mxGeometry x="10" y="190" width="90" height="30" as="geometry"/>
                </mxCell>
                <mxCell id="7" value="DppAgent" style="swimlane;html=1;startSize=20;" parent="2" vertex="1">
                    <mxGeometry x="350" y="20" width="120" height="280" as="geometry"/>
                </mxCell>
                <mxCell id="14" value="&lt;div style=&quot;background-color: rgb(40, 44, 52); font-family: consolas, &amp;quot;courier new&amp;quot;, monospace; font-size: 11px; line-height: 19px;&quot;&gt;&lt;div style=&quot;font-family: consolas, &amp;quot;courier new&amp;quot;, monospace; font-size: 11px; line-height: 19px;&quot;&gt;&lt;div style=&quot;color: rgb(171, 178, 191); font-family: consolas, &amp;quot;courier new&amp;quot;, monospace; font-size: 11px; line-height: 19px;&quot;&gt;&lt;span style=&quot;color: rgb(97, 175, 239); font-size: 11px;&quot;&gt;NewConnection&lt;/span&gt;&lt;/div&gt;&lt;/div&gt;&lt;/div&gt;" style="shape=ext;rounded=1;html=1;whiteSpace=wrap;fontSize=11;" parent="7" vertex="1">
                    <mxGeometry x="10" y="230" width="100" height="30" as="geometry"/>
                </mxCell>
                <mxCell id="17" value="作为服务端接收请求" style="swimlane;html=1;childLayout=stackLayout;resizeParent=1;resizeParentMax=0;startSize=20;" parent="1" vertex="1">
                    <mxGeometry x="10" y="320" width="810" height="490" as="geometry"/>
                </mxCell>
                <mxCell id="18" value="Reactor" style="swimlane;html=1;startSize=20;" parent="17" vertex="1">
                    <mxGeometry y="20" width="120" height="470" as="geometry"/>
                </mxCell>
                <mxCell id="19" value="&lt;div style=&quot;color: rgb(171, 178, 191); background-color: rgb(40, 44, 52); font-family: consolas, &amp;quot;courier new&amp;quot;, monospace; font-size: 11px; line-height: 19px;&quot;&gt;&lt;span style=&quot;color: rgb(97, 175, 239); font-size: 11px;&quot;&gt;HandleEvent&lt;/span&gt;&lt;/div&gt;" style="shape=ext;rounded=1;html=1;whiteSpace=wrap;fontSize=11;" parent="18" vertex="1">
                    <mxGeometry x="10" y="40" width="100" height="30" as="geometry"/>
                </mxCell>
                <mxCell id="20" value="TcpSocket" style="swimlane;html=1;startSize=20;" parent="17" vertex="1">
                    <mxGeometry x="120" y="20" width="110" height="470" as="geometry"/>
                </mxCell>
                <mxCell id="22" value="&lt;div style=&quot;color: rgb(171, 178, 191); background-color: rgb(40, 44, 52); font-family: consolas, &amp;quot;courier new&amp;quot;, monospace; font-size: 11px; line-height: 19px;&quot;&gt;&lt;span style=&quot;color: rgb(97, 175, 239); font-size: 11px;&quot;&gt;HandleInput&lt;/span&gt;&lt;/div&gt;" style="shape=ext;rounded=1;html=1;whiteSpace=wrap;fontSize=11;" parent="20" vertex="1">
                    <mxGeometry x="10" y="60" width="80" height="30" as="geometry"/>
                </mxCell>
                <mxCell id="24" value="DppCommand" style="swimlane;html=1;startSize=20;" parent="17" vertex="1">
                    <mxGeometry x="230" y="20" width="120" height="470" as="geometry"/>
                </mxCell>
                <mxCell id="45" value="&lt;div style=&quot;background-color: rgb(40 , 44 , 52) ; font-family: &amp;#34;consolas&amp;#34; , &amp;#34;courier new&amp;#34; , monospace ; line-height: 19px&quot;&gt;&lt;font color=&quot;#61afef&quot; style=&quot;font-size: 10px&quot;&gt;HandleDriverLogin&lt;/font&gt;&lt;/div&gt;" style="shape=ext;rounded=1;html=1;whiteSpace=wrap;fontSize=11;" parent="24" vertex="1">
                    <mxGeometry x="10" y="214.5" width="100" height="30" as="geometry"/>
                </mxCell>
                <mxCell id="43" value="&lt;div style=&quot;color: rgb(171 , 178 , 191) ; background-color: rgb(40 , 44 , 52) ; font-family: &amp;#34;consolas&amp;#34; , &amp;#34;courier new&amp;#34; , monospace ; font-size: 11px ; line-height: 19px&quot;&gt;&lt;span style=&quot;color: rgb(97 , 175 , 239) ; font-size: 11px&quot;&gt;Dispatch&lt;/span&gt;&lt;/div&gt;" style="shape=ext;rounded=1;html=1;whiteSpace=wrap;fontSize=11;" parent="24" vertex="1">
                    <mxGeometry x="10" y="170" width="100" height="30" as="geometry"/>
                </mxCell>
                <mxCell id="42" value="&lt;div style=&quot;color: rgb(171 , 178 , 191) ; background-color: rgb(40 , 44 , 52) ; font-family: &amp;#34;consolas&amp;#34; , &amp;#34;courier new&amp;#34; , monospace ; font-size: 11px ; line-height: 19px&quot;&gt;&lt;span style=&quot;color: rgb(97 , 175 , 239) ; font-size: 11px&quot;&gt;DppBeToH&lt;/span&gt;&lt;/div&gt;" style="shape=ext;rounded=1;html=1;whiteSpace=wrap;fontSize=11;" parent="24" vertex="1">
                    <mxGeometry x="10" y="125" width="100" height="30" as="geometry"/>
                </mxCell>
                <mxCell id="41" value="&lt;div style=&quot;color: rgb(171 , 178 , 191) ; background-color: rgb(40 , 44 , 52) ; font-family: &amp;#34;consolas&amp;#34; , &amp;#34;courier new&amp;#34; , monospace ; font-size: 11px ; line-height: 19px&quot;&gt;&lt;span style=&quot;color: rgb(97 , 175 , 239) ; font-size: 11px&quot;&gt;ReadComplete&lt;/span&gt;&lt;/div&gt;" style="shape=ext;rounded=1;html=1;whiteSpace=wrap;fontSize=11;" parent="24" vertex="1">
                    <mxGeometry x="10" y="80" width="100" height="30" as="geometry"/>
                </mxCell>
                <mxCell id="68" value="&lt;div style=&quot;color: rgb(171 , 178 , 191) ; background-color: rgb(40 , 44 , 52) ; font-family: &amp;#34;consolas&amp;#34; , &amp;#34;courier new&amp;#34; , monospace ; font-size: 11px ; line-height: 19px&quot;&gt;&lt;span style=&quot;color: rgb(97 , 175 , 239) ; font-size: 11px&quot;&gt;IncommingDPPMsg&lt;/span&gt;&lt;/div&gt;" style="shape=ext;rounded=1;html=1;whiteSpace=wrap;fontSize=11;" parent="24" vertex="1">
                    <mxGeometry x="10" y="360" width="100" height="30" as="geometry"/>
                </mxCell>
                <mxCell id="28" value="DppAgent" style="swimlane;html=1;startSize=20;" parent="17" vertex="1">
                    <mxGeometry x="350" y="20" width="130" height="470" as="geometry"/>
                </mxCell>
                <mxCell id="57" value="&lt;div style=&quot;color: rgb(171 , 178 , 191) ; background-color: rgb(40 , 44 , 52) ; font-family: &amp;#34;consolas&amp;#34; , &amp;#34;courier new&amp;#34; , monospace ; font-size: 11px ; line-height: 19px&quot;&gt;&lt;span style=&quot;color: rgb(97 , 175 , 239) ; font-size: 11px&quot;&gt;PeerConected&lt;/span&gt;&lt;/div&gt;" style="shape=ext;rounded=1;html=1;whiteSpace=wrap;fontSize=11;" parent="28" vertex="1">
                    <mxGeometry x="10" y="230" width="100" height="30" as="geometry"/>
                </mxCell>
                <mxCell id="61" value="&lt;div style=&quot;background-color: rgb(40 , 44 , 52) ; font-family: &amp;#34;consolas&amp;#34; , &amp;#34;courier new&amp;#34; , monospace ; font-size: 11px ; line-height: 19px&quot;&gt;&lt;font color=&quot;#61afef&quot;&gt;u:connections&lt;/font&gt;&lt;/div&gt;" style="shape=ext;rounded=1;html=1;whiteSpace=wrap;fontSize=11;" parent="28" vertex="1">
                    <mxGeometry x="10" y="270" width="100" height="30" as="geometry"/>
                </mxCell>
                <mxCell id="66" value="&lt;div style=&quot;color: rgb(171 , 178 , 191) ; background-color: rgb(40 , 44 , 52) ; font-family: &amp;#34;consolas&amp;#34; , &amp;#34;courier new&amp;#34; , monospace ; font-size: 11px ; line-height: 19px&quot;&gt;&lt;span style=&quot;color: rgb(97 , 175 , 239) ; font-size: 11px&quot;&gt;HandleXXX&lt;/span&gt;&lt;/div&gt;" style="shape=ext;rounded=1;html=1;whiteSpace=wrap;fontSize=11;" parent="28" vertex="1">
                    <mxGeometry x="15" y="380" width="90" height="30" as="geometry"/>
                </mxCell>
                <mxCell id="30" value="DirectHandler" style="swimlane;html=1;startSize=20;" parent="17" vertex="1">
                    <mxGeometry x="480" y="20" width="110" height="470" as="geometry"/>
                </mxCell>
                <mxCell id="62" value="&lt;div style=&quot;color: rgb(171 , 178 , 191) ; background-color: rgb(40 , 44 , 52) ; font-family: &amp;#34;consolas&amp;#34; , &amp;#34;courier new&amp;#34; , monospace ; font-size: 11px ; line-height: 19px&quot;&gt;&lt;span style=&quot;color: rgb(97 , 175 , 239) ; font-size: 11px&quot;&gt;PeerConected&lt;/span&gt;&lt;/div&gt;" style="shape=ext;rounded=1;html=1;whiteSpace=wrap;fontSize=11;" parent="30" vertex="1">
                    <mxGeometry x="10" y="290" width="90" height="30" as="geometry"/>
                </mxCell>
                <mxCell id="71" value="&lt;div style=&quot;color: rgb(171 , 178 , 191) ; background-color: rgb(40 , 44 , 52) ; font-family: &amp;#34;consolas&amp;#34; , &amp;#34;courier new&amp;#34; , monospace ; font-size: 11px ; line-height: 19px&quot;&gt;&lt;span style=&quot;color: rgb(97 , 175 , 239) ; font-size: 11px&quot;&gt;HandleXXX&lt;/span&gt;&lt;/div&gt;" style="shape=ext;rounded=1;html=1;whiteSpace=wrap;fontSize=11;" parent="30" vertex="1">
                    <mxGeometry x="10" y="400" width="90" height="30" as="geometry"/>
                </mxCell>
                <mxCell id="60" value="SessionMgr" style="swimlane;html=1;startSize=20;" parent="17" vertex="1">
                    <mxGeometry x="590" y="20" width="100" height="470" as="geometry"/>
                </mxCell>
                <mxCell id="64" value="&lt;div style=&quot;color: rgb(171, 178, 191); background-color: rgb(40, 44, 52); font-family: consolas, &amp;quot;courier new&amp;quot;, monospace; font-size: 10px; line-height: 19px;&quot;&gt;&lt;div style=&quot;font-family: consolas, &amp;quot;courier new&amp;quot;, monospace; font-size: 10px; line-height: 19px;&quot;&gt;&lt;span style=&quot;color: rgb(97, 175, 239); font-size: 10px;&quot;&gt;GetNHBySID&lt;/span&gt;&lt;/div&gt;&lt;/div&gt;" style="shape=ext;rounded=1;html=1;whiteSpace=wrap;fontSize=10;" parent="60" vertex="1">
                    <mxGeometry x="10" y="300" width="80" height="30" as="geometry"/>
                </mxCell>
                <mxCell id="72" value="&lt;div style=&quot;color: rgb(171, 178, 191); background-color: rgb(40, 44, 52); font-family: consolas, &amp;quot;courier new&amp;quot;, monospace; font-size: 10px; line-height: 19px;&quot;&gt;&lt;div style=&quot;font-family: consolas, &amp;quot;courier new&amp;quot;, monospace; font-size: 10px; line-height: 19px;&quot;&gt;&lt;span style=&quot;color: rgb(97, 175, 239); font-size: 10px;&quot;&gt;GetNHBySID&lt;/span&gt;&lt;/div&gt;&lt;/div&gt;" style="shape=ext;rounded=1;html=1;whiteSpace=wrap;fontSize=10;" parent="60" vertex="1">
                    <mxGeometry x="10" y="410" width="80" height="30" as="geometry"/>
                </mxCell>
                <mxCell id="63" value="NalHandler" style="swimlane;html=1;startSize=20;" parent="17" vertex="1">
                    <mxGeometry x="690" y="20" width="120" height="470" as="geometry"/>
                </mxCell>
                <mxCell id="65" value="&lt;div style=&quot;color: rgb(171 , 178 , 191) ; background-color: rgb(40 , 44 , 52) ; font-family: &amp;#34;consolas&amp;#34; , &amp;#34;courier new&amp;#34; , monospace ; font-size: 11px ; line-height: 19px&quot;&gt;&lt;span style=&quot;color: rgb(97 , 175 , 239) ; font-size: 11px&quot;&gt;PeerConected&lt;/span&gt;&lt;/div&gt;" style="shape=ext;rounded=1;html=1;whiteSpace=wrap;fontSize=11;" parent="63" vertex="1">
                    <mxGeometry x="10" y="320" width="100" height="30" as="geometry"/>
                </mxCell>
                <mxCell id="74" value="&lt;div style=&quot;color: rgb(171 , 178 , 191) ; background-color: rgb(40 , 44 , 52) ; font-family: &amp;#34;consolas&amp;#34; , &amp;#34;courier new&amp;#34; , monospace ; font-size: 11px ; line-height: 19px&quot;&gt;&lt;span style=&quot;color: rgb(97 , 175 , 239) ; font-size: 11px&quot;&gt;HandleXXX&lt;/span&gt;&lt;/div&gt;" style="shape=ext;rounded=1;html=1;whiteSpace=wrap;fontSize=11;" parent="63" vertex="1">
                    <mxGeometry x="15" y="420" width="90" height="30" as="geometry"/>
                </mxCell>
                <mxCell id="75" value="作为客户端建立连接" style="swimlane;html=1;childLayout=stackLayout;resizeParent=1;resizeParentMax=0;startSize=20;" parent="1" vertex="1">
                    <mxGeometry x="10" y="810" width="740" height="520" as="geometry"/>
                </mxCell>
                <mxCell id="76" value="SessionMgr" style="swimlane;html=1;startSize=20;" parent="75" vertex="1">
                    <mxGeometry y="20" width="120" height="500" as="geometry"/>
                </mxCell>
                <mxCell id="102" value="&lt;div style=&quot;color: rgb(171 , 178 , 191) ; background-color: rgb(40 , 44 , 52) ; font-family: &amp;#34;consolas&amp;#34; , &amp;#34;courier new&amp;#34; , monospace ; font-size: 11px ; line-height: 19px&quot;&gt;&lt;span style=&quot;color: rgb(97 , 175 , 239) ; font-size: 11px&quot;&gt;InitConnection&lt;/span&gt;&lt;/div&gt;" style="shape=ext;rounded=1;html=1;whiteSpace=wrap;fontSize=11;" parent="76" vertex="1">
                    <mxGeometry x="10" y="120" width="100" height="30" as="geometry"/>
                </mxCell>
                <mxCell id="77" value="&lt;div style=&quot;color: rgb(171 , 178 , 191) ; background-color: rgb(40 , 44 , 52) ; font-family: &amp;#34;consolas&amp;#34; , &amp;#34;courier new&amp;#34; , monospace ; font-size: 11px ; line-height: 19px&quot;&gt;&lt;span style=&quot;color: rgb(97 , 175 , 239) ; font-size: 11px&quot;&gt;AddSession&lt;/span&gt;&lt;/div&gt;" style="shape=ext;rounded=1;html=1;whiteSpace=wrap;fontSize=11;" parent="76" vertex="1">
                    <mxGeometry x="10" y="40" width="100" height="30" as="geometry"/>
                </mxCell>
                <mxCell id="100" value="&lt;div style=&quot;color: rgb(171 , 178 , 191) ; background-color: rgb(40 , 44 , 52) ; font-family: &amp;#34;consolas&amp;#34; , &amp;#34;courier new&amp;#34; , monospace ; font-size: 11px ; line-height: 19px&quot;&gt;&lt;span style=&quot;color: rgb(97 , 175 , 239) ; font-size: 11px&quot;&gt;InitNalHandler&lt;/span&gt;&lt;/div&gt;" style="shape=ext;rounded=1;html=1;whiteSpace=wrap;fontSize=11;" parent="76" vertex="1">
                    <mxGeometry x="10" y="80" width="100" height="30" as="geometry"/>
                </mxCell>
                <mxCell id="78" value="NalHandler" style="swimlane;html=1;startSize=20;" parent="75" vertex="1">
                    <mxGeometry x="120" y="20" width="120" height="500" as="geometry"/>
                </mxCell>
                <mxCell id="113" value="&lt;div style=&quot;color: rgb(171 , 178 , 191) ; background-color: rgb(40 , 44 , 52) ; font-family: &amp;#34;consolas&amp;#34; , &amp;#34;courier new&amp;#34; , monospace ; font-size: 11px ; line-height: 19px&quot;&gt;&lt;span style=&quot;color: rgb(97 , 175 , 239) ; font-size: 11px&quot;&gt;NewConnection&lt;/span&gt;&lt;/div&gt;" style="shape=ext;rounded=1;html=1;whiteSpace=wrap;fontSize=11;" parent="78" vertex="1">
                    <mxGeometry x="17.5" y="340" width="85" height="30" as="geometry"/>
                </mxCell>
                <mxCell id="106" value="&lt;div style=&quot;color: rgb(171 , 178 , 191) ; background-color: rgb(40 , 44 , 52) ; font-family: &amp;#34;consolas&amp;#34; , &amp;#34;courier new&amp;#34; , monospace ; font-size: 11px ; line-height: 19px&quot;&gt;&lt;span style=&quot;color: rgb(97 , 175 , 239) ; font-size: 11px&quot;&gt;ConnectPeer&lt;/span&gt;&lt;/div&gt;" style="shape=ext;rounded=1;html=1;whiteSpace=wrap;fontSize=11;" parent="78" vertex="1">
                    <mxGeometry x="10" y="170" width="100" height="30" as="geometry"/>
                </mxCell>
                <mxCell id="119" style="edgeStyle=orthogonalEdgeStyle;rounded=0;orthogonalLoop=1;jettySize=auto;html=1;exitX=0.5;exitY=1;exitDx=0;exitDy=0;entryX=0.75;entryY=1;entryDx=0;entryDy=0;fontSize=10;" parent="78" source="103" target="103" edge="1">
                    <mxGeometry relative="1" as="geometry"/>
                </mxCell>
                <mxCell id="103" value="&lt;div style=&quot;color: rgb(171 , 178 , 191) ; background-color: rgb(40 , 44 , 52) ; font-family: &amp;#34;consolas&amp;#34; , &amp;#34;courier new&amp;#34; , monospace ; font-size: 11px ; line-height: 19px&quot;&gt;&lt;span style=&quot;color: rgb(97 , 175 , 239) ; font-size: 11px&quot;&gt;InitConnection&lt;/span&gt;&lt;/div&gt;" style="shape=ext;rounded=1;html=1;whiteSpace=wrap;fontSize=11;" parent="78" vertex="1">
                    <mxGeometry x="10" y="130" width="100" height="30" as="geometry"/>
                </mxCell>
                <mxCell id="80" value="DppAgent" style="swimlane;html=1;startSize=20;" parent="75" vertex="1">
                    <mxGeometry x="240" y="20" width="120" height="500" as="geometry"/>
                </mxCell>
                <mxCell id="104" value="&lt;div style=&quot;color: rgb(171 , 178 , 191) ; background-color: rgb(40 , 44 , 52) ; font-family: &amp;#34;consolas&amp;#34; , &amp;#34;courier new&amp;#34; , monospace ; font-size: 11px ; line-height: 19px&quot;&gt;&lt;span style=&quot;color: rgb(97 , 175 , 239) ; font-size: 11px&quot;&gt;RegisterConEvent&lt;/span&gt;&lt;/div&gt;" style="shape=ext;rounded=1;html=1;whiteSpace=wrap;fontSize=11;" parent="80" vertex="1">
                    <mxGeometry x="10" y="180" width="100" height="30" as="geometry"/>
                </mxCell>
                <mxCell id="107" value="&lt;div style=&quot;color: rgb(171 , 178 , 191) ; background-color: rgb(40 , 44 , 52) ; font-family: &amp;#34;consolas&amp;#34; , &amp;#34;courier new&amp;#34; , monospace ; font-size: 11px ; line-height: 19px&quot;&gt;&lt;span style=&quot;color: rgb(97 , 175 , 239) ; font-size: 11px&quot;&gt;Connect&lt;/span&gt;&lt;/div&gt;" style="shape=ext;rounded=1;html=1;whiteSpace=wrap;fontSize=11;" parent="80" vertex="1">
                    <mxGeometry x="10" y="220" width="100" height="30" as="geometry"/>
                </mxCell>
                <mxCell id="86" value="Connector" style="swimlane;html=1;startSize=20;" parent="75" vertex="1">
                    <mxGeometry x="360" y="20" width="120" height="500" as="geometry"/>
                </mxCell>
                <mxCell id="109" value="&lt;div style=&quot;background-color: rgb(40 , 44 , 52) ; font-family: &amp;#34;consolas&amp;#34; , &amp;#34;courier new&amp;#34; , monospace ; font-size: 11px ; line-height: 19px&quot;&gt;&lt;font color=&quot;#61afef&quot;&gt;C:EventHandler&lt;/font&gt;&lt;/div&gt;" style="shape=ext;rounded=1;html=1;whiteSpace=wrap;fontSize=11;" parent="86" vertex="1">
                    <mxGeometry x="10" y="280" width="100" height="30" as="geometry"/>
                </mxCell>
                <mxCell id="108" value="&lt;div style=&quot;color: rgb(171 , 178 , 191) ; background-color: rgb(40 , 44 , 52) ; font-family: &amp;#34;consolas&amp;#34; , &amp;#34;courier new&amp;#34; , monospace ; font-size: 11px ; line-height: 19px&quot;&gt;&lt;span style=&quot;color: rgb(97 , 175 , 239) ; font-size: 11px&quot;&gt;Connect&lt;/span&gt;&lt;/div&gt;" style="shape=ext;rounded=1;html=1;whiteSpace=wrap;fontSize=11;" parent="86" vertex="1">
                    <mxGeometry x="10" y="240" width="100" height="30" as="geometry"/>
                </mxCell>
                <mxCell id="90" value="EventHandler" style="swimlane;html=1;startSize=20;" parent="75" vertex="1">
                    <mxGeometry x="480" y="20" width="110" height="500" as="geometry"/>
                </mxCell>
                <mxCell id="118" value="&lt;div style=&quot;color: rgb(171 , 178 , 191) ; background-color: rgb(40 , 44 , 52) ; font-family: &amp;#34;consolas&amp;#34; , &amp;#34;courier new&amp;#34; , monospace ; font-size: 11px ; line-height: 19px&quot;&gt;&lt;span style=&quot;color: rgb(97 , 175 , 239) ; font-size: 11px&quot;&gt;Send&lt;/span&gt;&lt;/div&gt;" style="shape=ext;rounded=1;html=1;whiteSpace=wrap;fontSize=11;" parent="90" vertex="1">
                    <mxGeometry x="10" y="450" width="85" height="30" as="geometry"/>
                </mxCell>
                <mxCell id="110" value="&lt;div style=&quot;color: rgb(171 , 178 , 191) ; background-color: rgb(40 , 44 , 52) ; font-family: &amp;#34;consolas&amp;#34; , &amp;#34;courier new&amp;#34; , monospace ; font-size: 11px ; line-height: 19px&quot;&gt;&lt;span style=&quot;color: rgb(97 , 175 , 239) ; font-size: 11px&quot;&gt;Open&lt;/span&gt;&lt;/div&gt;" style="shape=ext;rounded=1;html=1;whiteSpace=wrap;fontSize=11;" parent="90" vertex="1">
                    <mxGeometry x="10" y="300" width="85" height="30" as="geometry"/>
                </mxCell>
                <mxCell id="93" value="NalDppCommand" style="swimlane;html=1;startSize=20;" parent="75" vertex="1">
                    <mxGeometry x="590" y="20" width="150" height="500" as="geometry"/>
                </mxCell>
                <mxCell id="114" value="&lt;div style=&quot;color: rgb(171 , 178 , 191) ; background-color: rgb(40 , 44 , 52) ; font-family: &amp;#34;consolas&amp;#34; , &amp;#34;courier new&amp;#34; , monospace ; font-size: 11px ; line-height: 19px&quot;&gt;&lt;span style=&quot;color: rgb(97 , 175 , 239) ; font-size: 11px&quot;&gt;SendIdentification&lt;/span&gt;&lt;/div&gt;" style="shape=ext;rounded=1;html=1;whiteSpace=wrap;fontSize=11;" parent="93" vertex="1">
                    <mxGeometry x="17" y="380" width="120" height="30" as="geometry"/>
                </mxCell>
                <mxCell id="112" value="&lt;div style=&quot;color: rgb(171 , 178 , 191) ; background-color: rgb(40 , 44 , 52) ; font-family: &amp;#34;consolas&amp;#34; , &amp;#34;courier new&amp;#34; , monospace ; font-size: 11px ; line-height: 19px&quot;&gt;&lt;span style=&quot;color: rgb(97 , 175 , 239) ; font-size: 11px&quot;&gt;OnOpen&lt;/span&gt;&lt;/div&gt;" style="shape=ext;rounded=1;html=1;whiteSpace=wrap;fontSize=11;" parent="93" vertex="1">
                    <mxGeometry x="15.5" y="320" width="85" height="30" as="geometry"/>
                </mxCell>
                <mxCell id="115" value="&lt;div style=&quot;color: rgb(171 , 178 , 191) ; background-color: rgb(40 , 44 , 52) ; font-family: &amp;#34;consolas&amp;#34; , &amp;#34;courier new&amp;#34; , monospace ; font-size: 11px ; line-height: 19px&quot;&gt;&lt;span style=&quot;color: rgb(97 , 175 , 239) ; font-size: 11px&quot;&gt;SendHeaderAndBody&lt;/span&gt;&lt;/div&gt;" style="shape=ext;rounded=1;html=1;whiteSpace=wrap;fontSize=11;" parent="93" vertex="1">
                    <mxGeometry x="17" y="420" width="120" height="30" as="geometry"/>
                </mxCell>
                <mxCell id="123" value="作为客户端发送消息" style="swimlane;html=1;childLayout=stackLayout;resizeParent=1;resizeParentMax=0;startSize=20;" parent="1" vertex="1">
                    <mxGeometry x="10" y="1330" width="480" height="250" as="geometry"/>
                </mxCell>
                <mxCell id="124" value="NalHandler" style="swimlane;html=1;startSize=20;" parent="123" vertex="1">
                    <mxGeometry y="20" width="120" height="230" as="geometry"/>
                </mxCell>
                <mxCell id="150" value="&lt;div style=&quot;color: rgb(171 , 178 , 191) ; background-color: rgb(40 , 44 , 52) ; font-family: &amp;#34;consolas&amp;#34; , &amp;#34;courier new&amp;#34; , monospace ; font-size: 11px ; line-height: 19px&quot;&gt;&lt;span style=&quot;color: rgb(97 , 175 , 239) ; font-size: 11px&quot;&gt;SendDatasetStart&lt;/span&gt;&lt;/div&gt;" style="shape=ext;rounded=1;html=1;whiteSpace=wrap;fontSize=11;" parent="124" vertex="1">
                    <mxGeometry x="8.75" y="40" width="102.5" height="30" as="geometry"/>
                </mxCell>
                <mxCell id="128" value="Neighbor" style="swimlane;html=1;startSize=20;" parent="123" vertex="1">
                    <mxGeometry x="120" y="20" width="120" height="230" as="geometry"/>
                </mxCell>
                <mxCell id="154" value="&lt;div style=&quot;color: rgb(171 , 178 , 191) ; background-color: rgb(40 , 44 , 52) ; font-family: &amp;#34;consolas&amp;#34; , &amp;#34;courier new&amp;#34; , monospace ; font-size: 11px ; line-height: 19px&quot;&gt;&lt;span style=&quot;color: rgb(97 , 175 , 239) ; font-size: 11px&quot;&gt;SendSessionCmd&lt;/span&gt;&lt;/div&gt;" style="shape=ext;rounded=1;html=1;whiteSpace=wrap;fontSize=11;" parent="128" vertex="1">
                    <mxGeometry x="10" y="100" width="102.5" height="30" as="geometry"/>
                </mxCell>
                <mxCell id="153" value="&lt;div style=&quot;color: rgb(171 , 178 , 191) ; background-color: rgb(40 , 44 , 52) ; font-family: &amp;#34;consolas&amp;#34; , &amp;#34;courier new&amp;#34; , monospace ; font-size: 11px ; line-height: 19px&quot;&gt;&lt;span style=&quot;color: rgb(97 , 175 , 239) ; font-size: 11px&quot;&gt;SendDatasetStart&lt;/span&gt;&lt;/div&gt;" style="shape=ext;rounded=1;html=1;whiteSpace=wrap;fontSize=11;" parent="128" vertex="1">
                    <mxGeometry x="10" y="60" width="102.5" height="30" as="geometry"/>
                </mxCell>
                <mxCell id="155" value="&lt;div style=&quot;color: rgb(171 , 178 , 191) ; background-color: rgb(40 , 44 , 52) ; font-family: &amp;#34;consolas&amp;#34; , &amp;#34;courier new&amp;#34; , monospace ; font-size: 11px ; line-height: 19px&quot;&gt;&lt;span style=&quot;color: rgb(97 , 175 , 239) ; font-size: 11px&quot;&gt;CreateDppHeader&lt;/span&gt;&lt;/div&gt;" style="shape=ext;rounded=1;html=1;whiteSpace=wrap;fontSize=11;" parent="128" vertex="1">
                    <mxGeometry x="8.75" y="140" width="102.5" height="30" as="geometry"/>
                </mxCell>
                <mxCell id="133" value="NalDppCommand" style="swimlane;html=1;startSize=20;" parent="123" vertex="1">
                    <mxGeometry x="240" y="20" width="130" height="230" as="geometry"/>
                </mxCell>
                <mxCell id="156" value="&lt;div style=&quot;color: rgb(171 , 178 , 191) ; background-color: rgb(40 , 44 , 52) ; font-family: &amp;#34;consolas&amp;#34; , &amp;#34;courier new&amp;#34; , monospace ; font-size: 11px ; line-height: 19px&quot;&gt;&lt;span style=&quot;color: rgb(97 , 175 , 239) ; font-size: 11px&quot;&gt;SendHeaderAndBody&lt;/span&gt;&lt;/div&gt;" style="shape=ext;rounded=1;html=1;whiteSpace=wrap;fontSize=11;" parent="133" vertex="1">
                    <mxGeometry x="8.75" y="160" width="111.25" height="30" as="geometry"/>
                </mxCell>
                <mxCell id="136" value="EventHandler" style="swimlane;html=1;startSize=20;" parent="123" vertex="1">
                    <mxGeometry x="370" y="20" width="110" height="230" as="geometry"/>
                </mxCell>
                <mxCell id="157" value="&lt;div style=&quot;color: rgb(171 , 178 , 191) ; background-color: rgb(40 , 44 , 52) ; font-family: &amp;#34;consolas&amp;#34; , &amp;#34;courier new&amp;#34; , monospace ; font-size: 11px ; line-height: 19px&quot;&gt;&lt;span style=&quot;color: rgb(97 , 175 , 239) ; font-size: 11px&quot;&gt;Send&lt;/span&gt;&lt;/div&gt;" style="shape=ext;rounded=1;html=1;whiteSpace=wrap;fontSize=11;" parent="136" vertex="1">
                    <mxGeometry x="15" y="180" width="75" height="30" as="geometry"/>
                </mxCell>
            </root>
        </mxGraphModel>
    </diagram>
</mxfile>